<?xml version="1.0" encoding="UTF-8" standalone="no"?>
<!DOCTYPE svg PUBLIC "-//W3C//DTD SVG 1.1//EN"
 "http://www.w3.org/Graphics/SVG/1.1/DTD/svg11.dtd">
<!-- Generated by graphviz version 2.47.3 (20210619.1520)
 -->
<!-- Pages: 1 -->
<svg width="953pt" height="548pt"
 viewBox="0.00 0.00 953.27 548.00" xmlns="http://www.w3.org/2000/svg" xmlns:xlink="http://www.w3.org/1999/xlink">
<g id="graph0" class="graph" transform="scale(1 1) rotate(0) translate(4 544)">
<polygon fill="white" stroke="transparent" points="-4,4 -4,-544 949.27,-544 949.27,4 -4,4"/>
<!-- [root] azurerm_network_interface.main (expand) -->
<g id="node1" class="node">
<title>[root] azurerm_network_interface.main (expand)</title>
<polygon fill="none" stroke="black" points="541.59,-324 343.59,-324 343.59,-288 541.59,-288 541.59,-324"/>
<text text-anchor="middle" x="442.59" y="-302.3" font-family="Times New Roman,serif" font-size="14.00">azurerm_network_interface.main</text>
</g>
<!-- [root] azurerm_subnet.internal (expand) -->
<g id="node3" class="node">
<title>[root] azurerm_subnet.internal (expand)</title>
<polygon fill="none" stroke="black" points="517.09,-252 368.09,-252 368.09,-216 517.09,-216 517.09,-252"/>
<text text-anchor="middle" x="442.59" y="-230.3" font-family="Times New Roman,serif" font-size="14.00">azurerm_subnet.internal</text>
</g>
<!-- [root] azurerm_network_interface.main (expand)&#45;&gt;[root] azurerm_subnet.internal (expand) -->
<g id="edge1" class="edge">
<title>[root] azurerm_network_interface.main (expand)&#45;&gt;[root] azurerm_subnet.internal (expand)</title>
<path fill="none" stroke="black" d="M442.59,-287.7C442.59,-279.98 442.59,-270.71 442.59,-262.11"/>
<polygon fill="black" stroke="black" points="446.09,-262.1 442.59,-252.1 439.09,-262.1 446.09,-262.1"/>
</g>
<!-- [root] azurerm_resource_group.main (expand) -->
<g id="node2" class="node">
<title>[root] azurerm_resource_group.main (expand)</title>
<polygon fill="none" stroke="black" points="536.09,-108 349.09,-108 349.09,-72 536.09,-72 536.09,-108"/>
<text text-anchor="middle" x="442.59" y="-86.3" font-family="Times New Roman,serif" font-size="14.00">azurerm_resource_group.main</text>
</g>
<!-- [root] provider[&quot;registry.terraform.io/hashicorp/azurerm&quot;] -->
<g id="node6" class="node">
<title>[root] provider[&quot;registry.terraform.io/hashicorp/azurerm&quot;]</title>
<polygon fill="none" stroke="black" points="277.59,-36 -0.09,-18 277.59,0 555.26,-18 277.59,-36"/>
<text text-anchor="middle" x="277.59" y="-14.3" font-family="Times New Roman,serif" font-size="14.00">provider[&quot;registry.terraform.io/hashicorp/azurerm&quot;]</text>
</g>
<!-- [root] azurerm_resource_group.main (expand)&#45;&gt;[root] provider[&quot;registry.terraform.io/hashicorp/azurerm&quot;] -->
<g id="edge2" class="edge">
<title>[root] azurerm_resource_group.main (expand)&#45;&gt;[root] provider[&quot;registry.terraform.io/hashicorp/azurerm&quot;]</title>
<path fill="none" stroke="black" d="M402.22,-71.88C377.86,-61.54 346.79,-48.36 321.77,-37.74"/>
<polygon fill="black" stroke="black" points="323.07,-34.5 312.5,-33.81 320.34,-40.94 323.07,-34.5"/>
</g>
<!-- [root] var.prefix -->
<g id="node9" class="node">
<title>[root] var.prefix</title>
<polygon fill="none" stroke="black" points="637.59,-36 573.59,-36 573.59,0 643.59,0 643.59,-30 637.59,-36"/>
<polyline fill="none" stroke="black" points="637.59,-36 637.59,-30 "/>
<polyline fill="none" stroke="black" points="643.59,-30 637.59,-30 "/>
<text text-anchor="middle" x="608.59" y="-14.3" font-family="Times New Roman,serif" font-size="14.00">var.prefix</text>
</g>
<!-- [root] azurerm_resource_group.main (expand)&#45;&gt;[root] var.prefix -->
<g id="edge3" class="edge">
<title>[root] azurerm_resource_group.main (expand)&#45;&gt;[root] var.prefix</title>
<path fill="none" stroke="black" d="M483.19,-71.88C507.71,-61.54 538.96,-48.36 564.13,-37.74"/>
<polygon fill="black" stroke="black" points="565.6,-40.92 573.46,-33.81 562.88,-34.47 565.6,-40.92"/>
</g>
<!-- [root] azurerm_virtual_network.main (expand) -->
<g id="node4" class="node">
<title>[root] azurerm_virtual_network.main (expand)</title>
<polygon fill="none" stroke="black" points="535.09,-180 350.09,-180 350.09,-144 535.09,-144 535.09,-180"/>
<text text-anchor="middle" x="442.59" y="-158.3" font-family="Times New Roman,serif" font-size="14.00">azurerm_virtual_network.main</text>
</g>
<!-- [root] azurerm_subnet.internal (expand)&#45;&gt;[root] azurerm_virtual_network.main (expand) -->
<g id="edge4" class="edge">
<title>[root] azurerm_subnet.internal (expand)&#45;&gt;[root] azurerm_virtual_network.main (expand)</title>
<path fill="none" stroke="black" d="M442.59,-215.7C442.59,-207.98 442.59,-198.71 442.59,-190.11"/>
<polygon fill="black" stroke="black" points="446.09,-190.1 442.59,-180.1 439.09,-190.1 446.09,-190.1"/>
</g>
<!-- [root] azurerm_virtual_network.main (expand)&#45;&gt;[root] azurerm_resource_group.main (expand) -->
<g id="edge5" class="edge">
<title>[root] azurerm_virtual_network.main (expand)&#45;&gt;[root] azurerm_resource_group.main (expand)</title>
<path fill="none" stroke="black" d="M442.59,-143.7C442.59,-135.98 442.59,-126.71 442.59,-118.11"/>
<polygon fill="black" stroke="black" points="446.09,-118.1 442.59,-108.1 439.09,-118.1 446.09,-118.1"/>
</g>
<!-- [root] azurerm_windows_virtual_machine.main (expand) -->
<g id="node5" class="node">
<title>[root] azurerm_windows_virtual_machine.main (expand)</title>
<polygon fill="none" stroke="black" points="564.09,-396 321.09,-396 321.09,-360 564.09,-360 564.09,-396"/>
<text text-anchor="middle" x="442.59" y="-374.3" font-family="Times New Roman,serif" font-size="14.00">azurerm_windows_virtual_machine.main</text>
</g>
<!-- [root] azurerm_windows_virtual_machine.main (expand)&#45;&gt;[root] azurerm_network_interface.main (expand) -->
<g id="edge6" class="edge">
<title>[root] azurerm_windows_virtual_machine.main (expand)&#45;&gt;[root] azurerm_network_interface.main (expand)</title>
<path fill="none" stroke="black" d="M442.59,-359.7C442.59,-351.98 442.59,-342.71 442.59,-334.11"/>
<polygon fill="black" stroke="black" points="446.09,-334.1 442.59,-324.1 439.09,-334.1 446.09,-334.1"/>
</g>
<!-- [root] var.ip_forwarding -->
<g id="node7" class="node">
<title>[root] var.ip_forwarding</title>
<polygon fill="none" stroke="black" points="757.59,-396 647.59,-396 647.59,-360 763.59,-360 763.59,-390 757.59,-396"/>
<polyline fill="none" stroke="black" points="757.59,-396 757.59,-390 "/>
<polyline fill="none" stroke="black" points="763.59,-390 757.59,-390 "/>
<text text-anchor="middle" x="705.59" y="-374.3" font-family="Times New Roman,serif" font-size="14.00">var.ip_forwarding</text>
</g>
<!-- [root] var.location -->
<g id="node8" class="node">
<title>[root] var.location</title>
<polygon fill="none" stroke="black" points="857.59,-396 781.59,-396 781.59,-360 863.59,-360 863.59,-390 857.59,-396"/>
<polyline fill="none" stroke="black" points="857.59,-396 857.59,-390 "/>
<polyline fill="none" stroke="black" points="863.59,-390 857.59,-390 "/>
<text text-anchor="middle" x="822.59" y="-374.3" font-family="Times New Roman,serif" font-size="14.00">var.location</text>
</g>
<!-- [root] meta.count&#45;boundary (EachMode fixup) -->
<g id="node10" class="node">
<title>[root] meta.count&#45;boundary (EachMode fixup)</title>
<ellipse fill="none" stroke="black" cx="764.59" cy="-450" rx="180.87" ry="18"/>
<text text-anchor="middle" x="764.59" y="-446.3" font-family="Times New Roman,serif" font-size="14.00">[root] meta.count&#45;boundary (EachMode fixup)</text>
</g>
<!-- [root] meta.count&#45;boundary (EachMode fixup)&#45;&gt;[root] azurerm_windows_virtual_machine.main (expand) -->
<g id="edge7" class="edge">
<title>[root] meta.count&#45;boundary (EachMode fixup)&#45;&gt;[root] azurerm_windows_virtual_machine.main (expand)</title>
<path fill="none" stroke="black" d="M693.12,-433.46C645.27,-423.06 581.94,-409.29 530.93,-398.2"/>
<polygon fill="black" stroke="black" points="531.41,-394.73 520.9,-396.02 529.92,-401.57 531.41,-394.73"/>
</g>
<!-- [root] meta.count&#45;boundary (EachMode fixup)&#45;&gt;[root] var.ip_forwarding -->
<g id="edge8" class="edge">
<title>[root] meta.count&#45;boundary (EachMode fixup)&#45;&gt;[root] var.ip_forwarding</title>
<path fill="none" stroke="black" d="M750.3,-432.05C743.23,-423.67 734.56,-413.38 726.74,-404.1"/>
<polygon fill="black" stroke="black" points="729.27,-401.67 720.15,-396.28 723.91,-406.18 729.27,-401.67"/>
</g>
<!-- [root] meta.count&#45;boundary (EachMode fixup)&#45;&gt;[root] var.location -->
<g id="edge9" class="edge">
<title>[root] meta.count&#45;boundary (EachMode fixup)&#45;&gt;[root] var.location</title>
<path fill="none" stroke="black" d="M778.92,-431.7C785.88,-423.3 794.36,-413.07 801.99,-403.86"/>
<polygon fill="black" stroke="black" points="804.73,-406.04 808.41,-396.1 799.34,-401.57 804.73,-406.04"/>
</g>
<!-- [root] provider[&quot;registry.terraform.io/hashicorp/azurerm&quot;] (close) -->
<g id="node11" class="node">
<title>[root] provider[&quot;registry.terraform.io/hashicorp/azurerm&quot;] (close)</title>
<ellipse fill="none" stroke="black" cx="318.59" cy="-450" rx="246.96" ry="18"/>
<text text-anchor="middle" x="318.59" y="-446.3" font-family="Times New Roman,serif" font-size="14.00">[root] provider[&quot;registry.terraform.io/hashicorp/azurerm&quot;] (close)</text>
</g>
<!-- [root] provider[&quot;registry.terraform.io/hashicorp/azurerm&quot;] (close)&#45;&gt;[root] azurerm_windows_virtual_machine.main (expand) -->
<g id="edge10" class="edge">
<title>[root] provider[&quot;registry.terraform.io/hashicorp/azurerm&quot;] (close)&#45;&gt;[root] azurerm_windows_virtual_machine.main (expand)</title>
<path fill="none" stroke="black" d="M348.6,-432.05C365.08,-422.75 385.71,-411.11 403.44,-401.1"/>
<polygon fill="black" stroke="black" points="405.43,-404 412.42,-396.03 401.99,-397.9 405.43,-404"/>
</g>
<!-- [root] root -->
<g id="node12" class="node">
<title>[root] root</title>
<ellipse fill="none" stroke="black" cx="541.59" cy="-522" rx="49.29" ry="18"/>
<text text-anchor="middle" x="541.59" y="-518.3" font-family="Times New Roman,serif" font-size="14.00">[root] root</text>
</g>
<!-- [root] root&#45;&gt;[root] meta.count&#45;boundary (EachMode fixup) -->
<g id="edge11" class="edge">
<title>[root] root&#45;&gt;[root] meta.count&#45;boundary (EachMode fixup)</title>
<path fill="none" stroke="black" d="M577.91,-509.6C611.66,-499 662.61,-483.01 702.76,-470.41"/>
<polygon fill="black" stroke="black" points="703.96,-473.7 712.45,-467.36 701.86,-467.02 703.96,-473.7"/>
</g>
<!-- [root] root&#45;&gt;[root] provider[&quot;registry.terraform.io/hashicorp/azurerm&quot;] (close) -->
<g id="edge12" class="edge">
<title>[root] root&#45;&gt;[root] provider[&quot;registry.terraform.io/hashicorp/azurerm&quot;] (close)</title>
<path fill="none" stroke="black" d="M505.26,-509.6C471.74,-499.08 421.25,-483.23 381.23,-470.66"/>
<polygon fill="black" stroke="black" points="382.15,-467.28 371.56,-467.63 380.05,-473.96 382.15,-467.28"/>
</g>
</g>
</svg>
